<mxfile host="app.diagrams.net" modified="2024-05-24T11:13:33.270Z" agent="Mozilla/5.0 (Windows NT 10.0; Win64; x64) AppleWebKit/537.36 (KHTML, like Gecko) Chrome/125.0.0.0 Safari/537.36" etag="k5W_pzsYsTOBIQOEOjXf" version="24.4.7" type="github">
  <diagram id="R2lEEEUBdFMjLlhIrx00" name="Page-1">
    <mxGraphModel dx="1400" dy="753" grid="1" gridSize="10" guides="1" tooltips="1" connect="1" arrows="1" fold="1" page="1" pageScale="1" pageWidth="5000" pageHeight="5000" math="0" shadow="0" extFonts="Permanent Marker^https://fonts.googleapis.com/css?family=Permanent+Marker">
      <root>
        <mxCell id="0" />
        <mxCell id="1" parent="0" />
        <mxCell id="MbYnbwNAFRTKKCWUnWWG-13" style="edgeStyle=orthogonalEdgeStyle;rounded=0;orthogonalLoop=1;jettySize=auto;html=1;exitX=0;exitY=0.25;exitDx=0;exitDy=0;entryX=0;entryY=0.5;entryDx=0;entryDy=0;strokeColor=#A8201A;fontColor=#143642;fillColor=#FAE5C7;" edge="1" parent="1" source="MbYnbwNAFRTKKCWUnWWG-1" target="MbYnbwNAFRTKKCWUnWWG-7">
          <mxGeometry relative="1" as="geometry" />
        </mxCell>
        <mxCell id="MbYnbwNAFRTKKCWUnWWG-14" style="edgeStyle=orthogonalEdgeStyle;rounded=0;orthogonalLoop=1;jettySize=auto;html=1;exitX=0.5;exitY=1;exitDx=0;exitDy=0;entryX=0.5;entryY=0;entryDx=0;entryDy=0;strokeColor=#A8201A;fontColor=#143642;fillColor=#FAE5C7;" edge="1" parent="1" source="MbYnbwNAFRTKKCWUnWWG-1" target="MbYnbwNAFRTKKCWUnWWG-10">
          <mxGeometry relative="1" as="geometry" />
        </mxCell>
        <mxCell id="MbYnbwNAFRTKKCWUnWWG-18" style="edgeStyle=orthogonalEdgeStyle;rounded=0;orthogonalLoop=1;jettySize=auto;html=1;exitX=0;exitY=0.5;exitDx=0;exitDy=0;strokeColor=#A8201A;fontColor=#143642;fillColor=#FAE5C7;" edge="1" parent="1" source="MbYnbwNAFRTKKCWUnWWG-1" target="MbYnbwNAFRTKKCWUnWWG-17">
          <mxGeometry relative="1" as="geometry" />
        </mxCell>
        <mxCell id="MbYnbwNAFRTKKCWUnWWG-22" style="edgeStyle=orthogonalEdgeStyle;rounded=0;orthogonalLoop=1;jettySize=auto;html=1;exitX=1;exitY=0.5;exitDx=0;exitDy=0;entryX=0;entryY=0.5;entryDx=0;entryDy=0;strokeColor=#A8201A;fontColor=#143642;fillColor=#FAE5C7;" edge="1" parent="1" source="MbYnbwNAFRTKKCWUnWWG-1" target="MbYnbwNAFRTKKCWUnWWG-4">
          <mxGeometry relative="1" as="geometry">
            <Array as="points">
              <mxPoint x="2110" y="1760" />
              <mxPoint x="2110" y="1600" />
            </Array>
          </mxGeometry>
        </mxCell>
        <mxCell id="MbYnbwNAFRTKKCWUnWWG-24" style="edgeStyle=orthogonalEdgeStyle;rounded=0;orthogonalLoop=1;jettySize=auto;html=1;exitX=1;exitY=0.5;exitDx=0;exitDy=0;strokeColor=#A8201A;fontColor=#143642;fillColor=#FAE5C7;entryX=0;entryY=0.5;entryDx=0;entryDy=0;" edge="1" parent="1" source="MbYnbwNAFRTKKCWUnWWG-1" target="MbYnbwNAFRTKKCWUnWWG-25">
          <mxGeometry relative="1" as="geometry">
            <mxPoint x="2200" y="1720.0000000000005" as="targetPoint" />
            <Array as="points">
              <mxPoint x="2170" y="1760" />
              <mxPoint x="2170" y="1700" />
            </Array>
          </mxGeometry>
        </mxCell>
        <mxCell id="MbYnbwNAFRTKKCWUnWWG-28" style="edgeStyle=orthogonalEdgeStyle;rounded=0;orthogonalLoop=1;jettySize=auto;html=1;strokeColor=#A8201A;fontColor=#143642;fillColor=#FAE5C7;" edge="1" parent="1" source="MbYnbwNAFRTKKCWUnWWG-1" target="MbYnbwNAFRTKKCWUnWWG-27">
          <mxGeometry relative="1" as="geometry">
            <Array as="points">
              <mxPoint x="2110" y="1760" />
              <mxPoint x="2110" y="1810" />
            </Array>
          </mxGeometry>
        </mxCell>
        <mxCell id="MbYnbwNAFRTKKCWUnWWG-1" value="User" style="rounded=1;whiteSpace=wrap;html=1;strokeColor=#0F8B8D;fontColor=#143642;fillColor=#FAE5C7;" vertex="1" parent="1">
          <mxGeometry x="1970" y="1730" width="120" height="60" as="geometry" />
        </mxCell>
        <mxCell id="MbYnbwNAFRTKKCWUnWWG-2" value="Article" style="rounded=1;whiteSpace=wrap;html=1;strokeColor=#0F8B8D;fontColor=#143642;fillColor=#FAE5C7;" vertex="1" parent="1">
          <mxGeometry x="2470" y="1730" width="120" height="60" as="geometry" />
        </mxCell>
        <mxCell id="MbYnbwNAFRTKKCWUnWWG-3" value="Topic" style="rounded=1;whiteSpace=wrap;html=1;strokeColor=#0F8B8D;fontColor=#143642;fillColor=#FAE5C7;" vertex="1" parent="1">
          <mxGeometry x="2995" y="1970" width="120" height="60" as="geometry" />
        </mxCell>
        <mxCell id="MbYnbwNAFRTKKCWUnWWG-23" style="edgeStyle=orthogonalEdgeStyle;rounded=0;orthogonalLoop=1;jettySize=auto;html=1;exitX=1;exitY=0.5;exitDx=0;exitDy=0;entryX=0;entryY=0.5;entryDx=0;entryDy=0;strokeColor=#A8201A;fontColor=#143642;fillColor=#FAE5C7;" edge="1" parent="1" source="MbYnbwNAFRTKKCWUnWWG-4" target="MbYnbwNAFRTKKCWUnWWG-2">
          <mxGeometry relative="1" as="geometry">
            <Array as="points">
              <mxPoint x="2450" y="1600" />
              <mxPoint x="2450" y="1760" />
            </Array>
          </mxGeometry>
        </mxCell>
        <mxCell id="MbYnbwNAFRTKKCWUnWWG-4" value="writes" style="rhombus;whiteSpace=wrap;html=1;strokeColor=#b85450;fillColor=#f8cecc;" vertex="1" parent="1">
          <mxGeometry x="2210" y="1560" width="80" height="80" as="geometry" />
        </mxCell>
        <mxCell id="MbYnbwNAFRTKKCWUnWWG-5" value="like" style="rhombus;whiteSpace=wrap;html=1;strokeColor=#b85450;fillColor=#f8cecc;" vertex="1" parent="1">
          <mxGeometry x="2840" y="1490" width="80" height="80" as="geometry" />
        </mxCell>
        <mxCell id="MbYnbwNAFRTKKCWUnWWG-12" style="edgeStyle=orthogonalEdgeStyle;rounded=0;orthogonalLoop=1;jettySize=auto;html=1;exitX=0.5;exitY=1;exitDx=0;exitDy=0;entryX=0.5;entryY=0;entryDx=0;entryDy=0;strokeColor=#A8201A;fontColor=#143642;fillColor=#FAE5C7;" edge="1" parent="1" source="MbYnbwNAFRTKKCWUnWWG-7" target="MbYnbwNAFRTKKCWUnWWG-1">
          <mxGeometry relative="1" as="geometry" />
        </mxCell>
        <mxCell id="MbYnbwNAFRTKKCWUnWWG-7" value="follow" style="rhombus;whiteSpace=wrap;html=1;strokeColor=#b85450;fillColor=#f8cecc;" vertex="1" parent="1">
          <mxGeometry x="1990" y="1570" width="80" height="80" as="geometry" />
        </mxCell>
        <mxCell id="MbYnbwNAFRTKKCWUnWWG-15" style="edgeStyle=orthogonalEdgeStyle;rounded=0;orthogonalLoop=1;jettySize=auto;html=1;exitX=0;exitY=0.5;exitDx=0;exitDy=0;entryX=0;entryY=0.75;entryDx=0;entryDy=0;strokeColor=#A8201A;fontColor=#143642;fillColor=#FAE5C7;" edge="1" parent="1" source="MbYnbwNAFRTKKCWUnWWG-10" target="MbYnbwNAFRTKKCWUnWWG-1">
          <mxGeometry relative="1" as="geometry" />
        </mxCell>
        <mxCell id="MbYnbwNAFRTKKCWUnWWG-10" value="mail sub" style="rhombus;whiteSpace=wrap;html=1;strokeColor=#b85450;fillColor=#f8cecc;" vertex="1" parent="1">
          <mxGeometry x="1990" y="1870" width="80" height="80" as="geometry" />
        </mxCell>
        <mxCell id="MbYnbwNAFRTKKCWUnWWG-11" value="collection" style="rounded=1;whiteSpace=wrap;html=1;strokeColor=#0F8B8D;fontColor=#143642;fillColor=#FAE5C7;" vertex="1" parent="1">
          <mxGeometry x="2985" y="1780" width="120" height="60" as="geometry" />
        </mxCell>
        <mxCell id="MbYnbwNAFRTKKCWUnWWG-16" value="sub plans" style="rounded=1;whiteSpace=wrap;html=1;strokeColor=#0F8B8D;fontColor=#143642;fillColor=#FAE5C7;" vertex="1" parent="1">
          <mxGeometry x="1520" y="1730" width="120" height="60" as="geometry" />
        </mxCell>
        <mxCell id="MbYnbwNAFRTKKCWUnWWG-19" style="edgeStyle=orthogonalEdgeStyle;rounded=0;orthogonalLoop=1;jettySize=auto;html=1;exitX=0;exitY=0.5;exitDx=0;exitDy=0;entryX=1;entryY=0.5;entryDx=0;entryDy=0;strokeColor=#A8201A;fontColor=#143642;fillColor=#FAE5C7;" edge="1" parent="1" source="MbYnbwNAFRTKKCWUnWWG-17" target="MbYnbwNAFRTKKCWUnWWG-16">
          <mxGeometry relative="1" as="geometry" />
        </mxCell>
        <mxCell id="MbYnbwNAFRTKKCWUnWWG-17" value="subscribes" style="rhombus;whiteSpace=wrap;html=1;strokeColor=#b85450;fillColor=#f8cecc;" vertex="1" parent="1">
          <mxGeometry x="1750" y="1720" width="80" height="80" as="geometry" />
        </mxCell>
        <mxCell id="MbYnbwNAFRTKKCWUnWWG-20" value="Transaction&lt;div&gt;history&lt;/div&gt;" style="rounded=1;whiteSpace=wrap;html=1;strokeColor=#0F8B8D;fontColor=#143642;fillColor=#FAE5C7;" vertex="1" parent="1">
          <mxGeometry x="2210" y="1320" width="120" height="60" as="geometry" />
        </mxCell>
        <mxCell id="MbYnbwNAFRTKKCWUnWWG-26" style="edgeStyle=orthogonalEdgeStyle;rounded=0;orthogonalLoop=1;jettySize=auto;html=1;exitX=1;exitY=0.5;exitDx=0;exitDy=0;entryX=0;entryY=0.5;entryDx=0;entryDy=0;strokeColor=#A8201A;fontColor=#143642;fillColor=#FAE5C7;" edge="1" parent="1" target="MbYnbwNAFRTKKCWUnWWG-2">
          <mxGeometry relative="1" as="geometry">
            <mxPoint x="2260" y="1700.0000000000005" as="sourcePoint" />
            <mxPoint x="2440" y="1760.0000000000005" as="targetPoint" />
            <Array as="points">
              <mxPoint x="2340" y="1700" />
              <mxPoint x="2340" y="1760" />
            </Array>
          </mxGeometry>
        </mxCell>
        <mxCell id="MbYnbwNAFRTKKCWUnWWG-25" value="likes" style="rhombus;whiteSpace=wrap;html=1;strokeColor=#b85450;fillColor=#f8cecc;" vertex="1" parent="1">
          <mxGeometry x="2210" y="1660" width="80" height="80" as="geometry" />
        </mxCell>
        <mxCell id="MbYnbwNAFRTKKCWUnWWG-29" style="edgeStyle=orthogonalEdgeStyle;rounded=0;orthogonalLoop=1;jettySize=auto;html=1;exitX=1;exitY=0.5;exitDx=0;exitDy=0;entryX=0;entryY=0.5;entryDx=0;entryDy=0;strokeColor=#A8201A;fontColor=#143642;fillColor=#FAE5C7;" edge="1" parent="1" source="MbYnbwNAFRTKKCWUnWWG-27" target="MbYnbwNAFRTKKCWUnWWG-2">
          <mxGeometry relative="1" as="geometry">
            <Array as="points">
              <mxPoint x="2450" y="1810" />
              <mxPoint x="2450" y="1760" />
            </Array>
          </mxGeometry>
        </mxCell>
        <mxCell id="MbYnbwNAFRTKKCWUnWWG-27" value="comments" style="rhombus;whiteSpace=wrap;html=1;strokeColor=#b85450;fillColor=#f8cecc;" vertex="1" parent="1">
          <mxGeometry x="2210" y="1770" width="80" height="80" as="geometry" />
        </mxCell>
      </root>
    </mxGraphModel>
  </diagram>
</mxfile>
